<?xml version="1.0" standalone="no"?><!DOCTYPE svg PUBLIC "-//W3C//DTD SVG 1.1//EN" "http://www.w3.org/Graphics/SVG/1.1/DTD/svg11.dtd"><svg t="1741094516288" class="icon" viewBox="0 0 1024 1024" version="1.1" xmlns="http://www.w3.org/2000/svg" p-id="1636" xmlns:xlink="http://www.w3.org/1999/xlink" width="200" height="200"><path d="M686.445714 908.434286a37.302857 37.302857 0 0 0 24.064-8.704 38.838857 38.838857 0 0 0 13.824-22.016l156.672-719.872a38.765714 38.765714 0 0 0-5.632-29.184 36.278857 36.278857 0 0 0-25.088-16.896 31.085714 31.085714 0 0 0-9.216-1.024 37.302857 37.302857 0 0 0-24.064 8.704 34.157714 34.157714 0 0 0-12.8 22.016L683.373714 723.090286 550.253714 140.434286a38.765714 38.765714 0 0 0-37.888-29.696 40.228571 40.228571 0 0 0-25.088 8.192 36.571429 36.571429 0 0 0-13.824 21.504l-133.12 582.656-120.832-581.632a34.157714 34.157714 0 0 0-12.8-22.016 37.302857 37.302857 0 0 0-24.064-8.704 31.085714 31.085714 0 0 0-9.216 1.024 36.278857 36.278857 0 0 0-25.088 16.896 38.765714 38.765714 0 0 0-5.632 29.184L299.373714 877.714286a38.838857 38.838857 0 0 0 13.824 22.016 40.228571 40.228571 0 0 0 49.152 0.512 36.571429 36.571429 0 0 0 13.824-21.504l136.192-590.848 135.168 590.848a38.765714 38.765714 0 0 0 37.888 29.696h1.024z" fill="#303133" p-id="1637"></path></svg>